<?xml version="1.0" standalone="no"?>
<!DOCTYPE svg PUBLIC "-//W3C//DTD SVG 20010904//EN"
 "http://www.w3.org/TR/2001/REC-SVG-20010904/DTD/svg10.dtd">
<svg version="1.0" xmlns="http://www.w3.org/2000/svg"
 width="980.000000pt" height="980.000000pt" viewBox="0 0 980.000000 980.000000"
 preserveAspectRatio="xMidYMid meet">

<g transform="translate(0.000000,980.000000) scale(0.100000,-0.100000)"
fill="#000000" stroke="none">
<path d="M3941 7403 c-45 -32 -123 -87 -172 -123 -49 -36 -148 -105 -219 -155
-71 -49 -129 -92 -129 -95 0 -3 135 -101 300 -217 l301 -213 997 0 996 0 0
430 0 430 -996 0 -996 0 -82 -57z m607 -352 l2 -181 -52 0 -53 0 3 182 3 183
47 -1 47 -1 3 -182z m-202 153 c47 -23 64 -50 64 -105 0 -74 -56 -119 -146
-119 -22 0 -24 -4 -24 -55 l0 -55 -50 0 -50 0 0 175 0 175 86 0 c59 0 97 -5
120 -16z m1285 -149 c32 -88 58 -167 59 -175 0 -13 -10 -15 -52 -10 -45 4 -53
8 -56 28 -3 20 -9 22 -67 22 -59 0 -63 -2 -69 -25 -6 -23 -11 -25 -61 -25
l-54 0 19 53 c45 128 101 280 106 289 3 5 31 8 61 6 l55 -3 59 -160z m-878 81
c23 -13 27 -13 27 0 0 10 13 14 50 14 l50 0 0 -140 0 -140 -50 0 c-27 0 -50 4
-50 9 0 5 -17 3 -38 -5 -87 -35 -167 37 -159 144 7 103 89 160 170 118z m277
0 c0 -13 4 -13 28 0 55 28 111 14 136 -35 15 -29 33 -198 24 -223 -4 -9 -21
-12 -57 -10 l-51 4 0 78 c0 97 -5 110 -40 110 -35 0 -40 -13 -40 -111 l0 -79
-50 0 -50 0 0 140 0 140 50 0 c37 0 50 -4 50 -14z"/>
<path d="M4240 7095 c0 -34 1 -35 28 -29 35 9 45 18 40 40 -2 13 -13 20 -36
22 -31 3 -32 2 -32 -33z"/>
<path d="M5498 7051 l-16 -51 34 0 34 0 -14 38 c-8 20 -16 43 -18 50 -2 8 -11
-9 -20 -37z"/>
<path d="M4702 7048 c-23 -29 -18 -76 11 -87 47 -18 81 31 53 74 -18 27 -47
33 -64 13z"/>
<path d="M7660 5853 c-453 -35 -886 -97 -1205 -173 -44 -11 -91 -21 -105 -24
-115 -19 -461 -133 -704 -233 -136 -55 -404 -188 -503 -249 -115 -72 -267
-176 -334 -230 -44 -36 -88 -70 -98 -75 -14 -9 -42 8 -164 99 -81 61 -171 125
-200 142 -28 17 -81 49 -116 71 -166 105 -531 269 -796 357 -374 126 -832 223
-1293 277 -206 23 -193 26 -268 -52 -144 -151 -270 -327 -357 -502 -62 -124
-138 -321 -123 -321 30 0 308 -47 442 -74 734 -152 1224 -434 1506 -867 128
-197 222 -477 255 -758 20 -172 12 -591 -15 -816 -10 -82 -16 -153 -13 -157
14 -15 283 -32 511 -32 590 1 1055 104 1565 350 130 62 135 66 135 95 0 17 -8
43 -19 57 -57 82 -124 256 -147 381 -18 103 -17 290 2 391 69 367 310 663 659
811 44 18 106 53 137 76 133 101 359 225 528 291 197 77 468 153 685 192 66
13 123 25 127 29 11 10 54 210 72 331 21 144 30 362 21 503 l-7 117 -66 -2
c-37 -1 -87 -3 -112 -5z m-5910 -313 c0 -5 -5 -10 -11 -10 -5 0 -7 5 -4 10 3
6 8 10 11 10 2 0 4 -4 4 -10z m-40 -14 c0 -3 -4 -8 -10 -11 -5 -3 -10 -1 -10
4 0 6 5 11 10 11 6 0 10 -2 10 -4z m-38 -48 c-7 -7 -12 -8 -12 -2 0 14 12 26
19 19 2 -3 -1 -11 -7 -17z"/>
</g>
</svg>
