<?xml version="1.0" standalone="no"?>
<!DOCTYPE svg PUBLIC "-//W3C//DTD SVG 20010904//EN"
 "http://www.w3.org/TR/2001/REC-SVG-20010904/DTD/svg10.dtd">
<svg version="1.0" xmlns="http://www.w3.org/2000/svg"
 width="427.000000pt" height="417.000000pt" viewBox="0 0 427.000000 417.000000"
 preserveAspectRatio="xMidYMid meet">

<g transform="translate(0.000000,417.000000) scale(0.100000,-0.100000)"
fill="#000000" stroke="none">
<path d="M136 4102 c-3 -5 -4 -161 -3 -348 l2 -339 345 0 345 0 0 345 0 345
-342 2 c-188 2 -344 -1 -347 -5z m592 -345 l2 -247 -247 2 -248 3 -3 235 c-1
129 0 240 3 247 3 11 56 13 247 11 l243 -3 3 -248z"/>
<path d="M334 3897 c-2 -7 -3 -74 -2 -148 l3 -134 148 -3 148 -3 -3 148 -3
148 -143 3 c-111 2 -144 0 -148 -11z"/>
<path d="M930 4060 l0 -50 51 0 50 0 -3 48 -3 47 -47 3 -48 3 0 -51z"/>
<path d="M1127 4096 c-1 -6 -3 -49 -2 -96 l0 -85 98 -3 97 -3 0 -49 0 -50
-145 0 c-131 0 -145 2 -146 18 -4 84 0 77 -51 80 l-48 3 0 -50 0 -50 48 -3 47
-3 3 -47 3 -48 -50 0 -51 0 0 -50 0 -49 98 -3 97 -3 1 -95 0 -95 47 -3 46 -3
3 -97 3 -97 48 -3 48 -3 -3 -46 -3 -47 -45 0 -45 -1 -3 -48 -3 -48 -47 3 c-46
3 -47 3 -47 38 -1 56 -7 60 -106 60 l-89 0 0 45 0 45 -50 0 -50 0 0 50 0 50
-99 0 -100 0 -3 -47 -3 -48 -97 -3 -98 -3 0 -94 0 -95 -49 0 -50 0 -3 48 -3
47 -84 1 c-47 1 -90 0 -97 -3 -6 -2 -11 -24 -11 -49 l0 -44 48 0 48 0 3 -97 3
-98 48 -3 47 -3 0 -250 0 -249 -50 0 -50 0 0 50 0 50 -49 0 -48 0 2 -47 1 -48
47 -3 47 -3 0 -50 0 -49 -50 0 -51 0 3 -47 3 -48 95 -1 95 -2 3 -45 3 -46 -48
-3 -48 -3 -3 -47 -3 -47 -47 -3 -47 -3 0 -295 0 -295 97 -3 98 -3 0 -49 0 -50
-100 0 -99 0 0 -195 1 -195 49 0 48 0 3 98 3 97 48 3 47 3 0 95 0 94 50 0 50
0 0 -95 0 -95 100 0 100 0 0 145 0 145 50 0 50 0 0 -50 0 -50 51 0 50 0 -3
-47 -3 -47 -45 -1 -45 0 -3 -47 -3 -48 50 0 51 0 0 50 c0 35 4 50 13 49 6 -1
29 -1 50 0 l37 1 0 45 0 45 -50 0 -50 0 0 50 0 49 147 3 146 3 1 45 1 45 -48
5 c-26 3 -47 8 -47 13 0 4 0 25 0 47 l0 40 95 0 95 0 0 -150 0 -150 -48 0 -48
0 2 -40 c1 -23 4 -43 7 -46 3 -3 45 -6 94 -6 l88 0 3 96 3 96 49 0 50 0 0 50
0 50 50 0 50 0 0 -50 0 -50 50 0 50 0 0 -50 0 -50 -51 0 -50 0 3 -46 3 -46 95
-2 95 -1 3 -147 3 -148 -50 0 -50 0 -3 48 -3 47 -47 3 -48 3 0 50 0 50 -147
-3 -148 -3 -3 -47 -3 -47 -47 -3 c-49 -3 -49 -2 -51 -65 -1 -32 -2 -33 -45
-33 l-45 0 -3 48 -3 47 -47 3 -48 3 0 -100 0 -100 48 -3 47 -3 3 -47 3 -48
-50 0 -51 0 0 -49 0 -50 48 -3 47 -3 3 -48 3 -48 46 3 47 3 0 45 1 45 48 3 47
3 0 -100 0 -101 -95 0 -96 0 3 -97 3 -97 37 -1 c45 0 52 -6 53 -53 0 -33 4
-38 30 -42 65 -13 65 -12 65 146 l0 144 49 0 50 0 3 -48 3 -47 48 -3 48 -3 -3
-47 c-3 -50 -1 -48 -70 -51 -26 -1 -28 -4 -28 -46 l0 -45 50 0 50 0 0 48 0 48
48 0 47 -1 3 98 3 97 49 0 50 0 0 100 0 100 50 0 50 0 0 50 0 50 -100 0 -100
0 0 100 0 100 50 0 50 0 0 -50 0 -50 50 0 50 0 0 50 0 50 50 0 50 0 0 50 0 50
50 0 50 0 0 50 0 51 98 -3 97 -3 0 -45 0 -45 -47 -3 -48 -3 0 -50 0 -49 -50 0
-50 0 0 -100 0 -100 -50 0 -50 0 0 -50 0 -50 51 0 50 0 -3 -48 -3 -47 -47 -3
-47 -3 -3 -47 -3 -47 -48 -3 -48 -3 3 -47 3 -47 48 -3 48 -3 -3 -47 -3 -47
-47 -3 -48 -3 0 -45 0 -44 149 0 150 0 3 48 3 47 42 -3 c41 -3 42 -2 47 30 10
64 7 68 -46 68 l-48 0 0 151 0 150 48 -3 47 -3 3 -97 3 -98 44 0 45 0 0 150 0
150 100 0 100 0 0 50 0 50 -100 0 -100 0 0 50 0 50 100 0 100 0 0 50 0 50 -50
0 -50 0 0 50 0 50 -51 0 -50 0 3 48 3 47 48 3 47 3 0 94 0 94 -47 3 -48 3 -3
48 -3 47 -145 0 -144 0 0 50 0 50 244 0 245 0 3 -47 3 -48 98 -3 97 -3 0 51 0
50 -50 0 -50 0 0 50 0 50 100 0 100 0 0 -100 0 -100 101 0 100 0 -3 -47 -3
-48 -47 -3 -48 -3 0 -50 0 -50 48 3 47 3 3 48 3 47 50 0 49 0 0 -50 0 -50 45
0 c48 0 48 0 45 62 l-2 38 51 0 51 0 0 100 0 100 100 0 100 0 0 -50 0 -50 -51
0 -50 0 3 -47 3 -48 48 -3 47 -3 0 50 0 51 50 0 50 0 0 -50 0 -50 50 0 50 0 0
-50 0 -50 50 0 50 0 0 -145 0 -145 -49 0 -50 0 -3 47 -3 48 -148 3 -148 3 3
47 3 47 45 1 45 0 3 47 3 47 -50 0 -51 0 0 -45 c0 -43 -1 -45 -30 -46 -16 -1
-34 -3 -40 -4 -5 -1 -14 -3 -20 -4 -6 0 -10 -40 -10 -96 l0 -95 -145 0 -145 0
0 -50 0 -50 -50 0 -50 0 0 100 0 100 51 0 50 0 -3 48 -3 47 -97 3 -98 3 0 -50
0 -51 -51 0 -50 0 3 48 3 47 45 1 45 0 3 47 3 46 -48 3 -48 3 -3 48 -3 47 -49
0 -49 0 -3 -97 -3 -96 -45 -1 -45 -1 -3 -47 -3 -48 100 0 101 0 0 -49 0 -50
-47 -3 -48 -3 -3 -48 -3 -47 150 0 151 0 0 -100 0 -100 -50 0 -50 0 0 50 0 50
-50 0 -50 0 0 -50 0 -50 -50 0 -50 0 0 -50 0 -50 -50 0 -49 0 -3 -97 -3 -98
-48 -3 -48 -3 3 -47 3 -47 48 -3 48 -3 -3 -47 -3 -47 -135 -3 c-74 -2 -140 -4
-145 -6 -6 -2 -9 -22 -7 -45 l4 -41 194 0 194 0 0 45 0 45 50 0 50 0 0 -45 0
-45 50 0 50 0 0 95 0 94 98 3 97 3 3 48 3 47 50 0 49 0 0 50 0 50 44 0 44 0 4
46 c2 25 1 47 -1 50 -2 2 -24 4 -48 4 l-43 0 0 -50 0 -50 -50 0 -50 0 0 150 0
150 95 0 95 0 1 -87 c1 -49 1 -94 0 -100 -1 -9 14 -13 49 -13 l50 0 0 -49 0
-50 -47 -3 -48 -3 -3 -128 c-4 -171 -4 -170 106 -165 l87 3 3 98 3 97 99 0 99
0 3 -48 3 -47 47 -3 47 -3 3 -47 3 -47 95 0 95 0 3 98 3 97 -50 0 -50 0 -3
-47 -3 -48 -47 -3 -48 -3 0 50 0 50 48 3 47 3 3 48 3 47 50 0 49 0 0 151 0
150 48 -3 47 -3 3 -48 3 -48 97 3 97 3 -3 78 c-4 109 0 117 54 117 l44 0 0 49
0 50 -47 3 -46 3 0 45 0 45 46 3 47 3 0 95 0 94 -45 0 -45 0 0 -39 c0 -46 -13
-58 -62 -55 l-38 1 0 -98 0 -99 -100 0 -100 0 0 50 0 50 50 0 50 0 0 94 0 95
48 3 47 3 3 48 3 47 95 0 94 0 0 50 0 50 -195 0 -195 0 0 150 0 150 50 0 50 0
0 -50 0 -50 94 0 c102 0 104 1 101 60 l-2 35 -96 3 -96 3 -3 99 -3 99 100 3
100 3 1 35 c1 19 2 41 3 48 0 7 17 12 46 12 l45 0 0 45 0 44 -142 3 -143 3 -3
48 -3 47 145 0 146 0 0 100 0 100 -95 0 -95 0 0 150 0 150 95 0 95 0 0 50 0
50 -95 0 -95 0 0 -50 0 -50 -50 0 -50 0 0 -100 0 -100 -50 0 -50 0 0 50 0 50
-50 0 -50 0 0 50 0 50 50 0 50 0 0 50 0 50 -50 0 -50 0 0 -50 0 -50 -50 0 -50
0 0 150 0 151 98 -3 97 -3 3 -47 3 -48 49 0 49 0 3 98 3 97 48 3 47 3 0 95 0
94 -49 0 -50 0 -3 -47 -3 -48 -45 0 -45 0 -3 48 -3 47 -49 0 -49 0 -3 -47 -3
-48 -45 0 -45 0 -3 48 -3 47 -50 0 -49 0 0 -97 0 -98 -76 3 c-114 5 -124 1
-124 -53 l0 -45 100 0 100 0 0 -50 0 -49 -147 -3 -148 -3 -3 -47 -3 -48 50 0
51 0 0 -250 0 -250 -50 0 -50 0 0 200 0 200 -49 0 -49 0 1 48 0 47 -46 3 -47
3 0 195 0 194 95 0 95 0 0 -45 c0 -29 -5 -45 -12 -46 -7 -1 -24 -2 -38 -3 -47
-2 -51 -12 -49 -107 l2 -89 48 0 48 0 3 98 3 97 30 1 c66 3 64 1 67 51 l3 47
45 0 45 1 3 48 3 47 -245 0 -246 0 0 49 0 50 48 3 47 3 3 48 3 47 -50 0 -50 0
-3 -47 -3 -48 -47 -3 -48 -3 0 50 0 51 -50 0 -50 0 0 -50 0 -50 51 0 50 0 -3
-47 -3 -48 -48 -3 -48 -3 3 -47 c3 -51 -3 -47 81 -51 15 -1 17 -13 17 -96 l0
-95 -50 0 -50 0 0 44 c0 48 -9 56 -66 56 -34 0 -34 0 -34 45 l0 45 -50 0 -50
0 0 -43 c0 -24 -2 -46 -4 -48 -3 -2 -25 -3 -50 -1 l-46 4 0 94 0 94 100 0 100
0 0 100 0 100 -50 0 -50 0 0 -50 0 -50 -50 0 -50 0 0 50 0 50 -50 0 -50 0 0
50 0 50 50 0 50 0 0 50 0 50 100 0 100 0 0 -50 0 -50 100 0 100 0 0 50 0 50
50 0 50 0 0 -50 0 -49 96 -3 96 -3 1 -95 2 -95 48 -3 47 -3 0 150 0 151 -94 0
-95 0 -3 48 -3 47 -97 3 -97 3 -3 47 -3 47 -47 3 -48 3 0 -100 0 -101 -50 0
-50 0 0 50 0 50 -151 0 -150 0 3 48 3 47 48 3 47 3 0 50 0 49 -50 0 -50 0 0
49 0 49 -95 0 c-65 0 -95 -3 -96 -11 -1 -7 0 -51 1 -99 l2 -88 -51 0 -51 0 0
-49 0 -50 48 -3 47 -3 3 -47 3 -48 44 0 44 0 3 48 3 47 48 3 47 3 0 -50 0 -50
-47 -3 -48 -3 -3 -47 -3 -47 -45 -3 -46 -3 0 -97 1 -98 -49 0 -49 0 -3 98 -3
97 -47 3 -47 3 -3 97 -3 97 -47 3 -47 3 -3 47 -3 47 -48 3 -48 3 3 47 3 47 98
3 98 3 -3 47 -3 47 -147 2 -148 2 0 -49 0 -50 -50 0 -50 0 0 50 0 49 -47 -3
-48 -3 -3 -46 -3 -47 -50 0 -49 0 0 49 0 50 -95 -2 c-56 0 -96 -5 -98 -11z
m393 -136 l0 -50 100 0 100 0 0 -50 0 -50 50 0 50 0 0 -100 0 -100 -50 0 -50
0 0 -150 0 -150 -50 0 -51 0 3 -96 3 -96 145 -1 145 -2 3 -47 3 -48 -250 0
-251 0 0 -100 0 -100 100 0 100 0 0 50 0 51 98 -3 97 -3 3 -47 3 -48 50 0 49
0 0 50 0 50 50 0 50 0 0 144 0 145 48 3 47 3 1 95 2 95 46 3 46 3 0 50 0 49
49 0 50 0 3 -47 3 -48 48 -3 47 -3 0 -50 0 -49 -100 0 -100 0 0 -95 0 -95 -45
0 -45 0 0 -50 0 -50 45 0 45 0 0 -100 0 -100 -43 0 c-24 0 -46 -2 -48 -4 -2
-3 -3 -25 -1 -50 l4 -46 144 0 144 0 0 100 0 100 -51 0 -50 0 3 48 3 47 95 0
95 0 3 -147 3 -148 49 0 49 0 3 148 3 147 48 3 47 3 0 -50 0 -51 50 0 50 0 0
51 0 50 48 -3 47 -3 3 -147 3 -147 96 -3 97 -3 -1 -95 -2 -95 -45 -3 -46 -3 0
-49 0 -49 47 -3 47 -3 0 -45 1 -45 47 -3 47 -3 3 -47 3 -47 48 -3 47 -3 0 50
0 51 50 0 50 0 0 50 0 50 50 0 50 0 0 100 0 100 -50 0 -50 0 0 50 0 50 50 0
50 0 0 -50 0 -50 100 0 100 0 0 -50 0 -50 50 0 50 0 0 -50 0 -50 101 0 100 0
-3 -47 -3 -48 -98 -3 -98 -3 3 -97 3 -97 48 0 48 1 -3 -96 -3 -95 -47 -3 -48
-3 0 50 0 51 -50 0 -50 0 0 -50 0 -50 -100 0 -100 0 0 -50 0 -50 -50 0 -50 0
0 -50 0 -50 50 0 50 0 0 -50 0 -50 50 0 50 0 0 50 0 50 50 0 50 0 0 -50 0 -50
-50 0 -50 0 0 -100 0 -100 -50 0 -50 0 0 50 0 50 -50 0 -50 0 0 101 0 100 -47
-3 -48 -3 -3 -48 -3 -47 -50 0 -49 0 0 -49 0 -50 -47 -3 c-29 -2 -48 -8 -49
-15 -1 -7 -2 -51 -3 -98 l-1 -85 -45 0 -45 0 0 100 0 100 -50 0 -50 0 0 150 0
149 97 3 97 3 0 45 1 45 98 3 97 3 0 -51 0 -50 49 0 50 0 3 47 3 48 47 3 47 3
3 96 3 96 48 0 47 -1 0 49 0 48 48 3 47 3 3 48 3 47 -50 0 -51 0 0 50 0 50
-50 0 -50 0 0 -100 0 -100 -100 0 -100 0 0 -95 0 -95 -145 0 -145 0 0 -50 0
-50 -50 0 -50 0 0 95 0 94 -97 3 -98 3 -3 98 -3 97 51 0 50 0 0 100 0 100 -50
0 -50 0 0 50 0 50 50 0 50 0 0 50 0 50 -100 0 -100 0 0 -150 0 -150 -50 0 -50
0 0 50 0 50 -50 0 -50 0 0 -50 0 -50 -50 0 -50 0 0 -50 0 -50 50 0 50 0 0 -50
0 -50 50 0 50 0 0 50 0 50 50 0 51 0 -3 -97 -3 -98 -47 -3 -48 -3 0 -44 0 -44
148 -3 147 -3 3 -47 3 -48 -50 0 -51 0 0 -50 0 -50 -100 0 -100 0 0 50 0 50
-50 0 -50 0 0 -50 0 -50 -51 0 -50 0 3 48 3 47 48 3 47 3 0 144 0 144 -47 3
-48 3 -3 48 -3 47 -50 0 -49 0 0 -50 0 -50 -45 0 -45 0 0 -45 c0 -39 -3 -45
-24 -51 -13 -3 -35 -4 -47 -2 -23 3 -24 8 -29 98 l-5 95 -47 3 -47 3 -3 -48
-3 -48 -97 -3 -98 -3 0 51 0 50 -50 0 -50 0 0 50 0 50 50 0 50 0 0 50 0 50
-100 0 -100 0 0 -50 0 -50 -50 0 -50 0 0 -50 0 -50 49 0 50 0 3 -47 3 -48 48
-3 47 -3 0 -50 0 -51 -47 3 -48 3 -3 -47 -3 -47 50 0 50 0 3 47 3 48 45 -1 45
-1 3 -96 3 -97 -51 0 -50 0 0 -50 0 -50 -50 0 -50 0 0 51 0 50 -47 -3 -48 -3
-3 -97 -3 -98 101 0 100 0 0 -150 0 -150 50 0 50 0 0 50 0 50 50 0 50 0 0 50
0 50 -50 0 -50 0 0 50 0 50 50 0 50 0 2 197 3 196 45 0 45 0 3 -146 3 -147 94
0 c103 0 108 3 103 69 -2 30 -4 31 -50 31 l-48 0 0 50 0 50 51 0 51 0 -4 45
-3 45 47 0 48 0 0 -45 0 -45 -44 0 -44 0 -4 -46 c-2 -25 -1 -47 1 -50 2 -2 24
-4 48 -4 l43 0 0 -50 0 -50 -49 0 -49 0 1 -47 2 -48 -97 -3 -98 -3 0 -99 0
-100 -50 0 -49 0 -3 -97 -3 -98 -97 -3 -98 -3 0 51 0 50 -50 0 -50 0 0 100 0
100 -50 0 -50 0 0 -51 0 -50 -47 3 -48 3 -3 47 -3 47 -47 3 -47 3 -3 48 -3 47
-95 0 -94 0 0 49 0 50 47 3 47 3 0 45 0 45 -49 3 -50 3 3 49 4 50 94 0 94 0 0
95 0 95 49 0 50 0 3 -47 3 -48 45 0 45 0 3 98 3 97 -196 0 -195 0 0 -50 0 -50
44 0 44 0 4 -42 c5 -50 -3 -58 -54 -58 l-38 0 0 50 0 50 -49 0 -50 0 -3 -47
-3 -48 -97 -3 -98 -3 0 -44 0 -44 48 -3 47 -3 3 -47 3 -47 47 -3 47 -3 3 -47
3 -48 -50 0 -51 0 0 -50 0 -50 -50 0 -50 0 0 -50 0 -50 100 0 101 0 -3 -97 -3
-98 -47 -3 -47 -3 -3 -47 -3 -47 -47 -3 -48 -3 0 50 0 51 50 0 50 0 0 50 0 50
-100 0 -101 0 3 148 3 147 98 3 98 3 -3 47 -3 47 -47 3 -48 3 0 50 0 49 -50 0
-50 0 0 -50 0 -50 -150 0 -150 0 0 -50 0 -50 -51 0 -50 0 3 48 3 47 48 3 47 3
0 50 0 49 150 0 150 0 0 44 0 45 -48 3 -47 3 -3 47 -3 47 -47 3 -47 3 -3 98
-3 97 51 0 50 0 0 -50 0 -50 50 0 50 0 0 100 0 100 -100 0 -100 0 0 100 0 100
150 0 150 0 0 50 0 50 51 0 50 0 -3 48 -3 47 -48 3 -48 3 3 47 3 47 48 3 48 3
-3 47 -3 47 -45 0 -45 0 0 50 c0 41 3 50 18 49 9 -1 31 -2 47 -3 29 -1 30 -3
30 -49 l0 -49 48 1 47 1 3 -147 3 -147 47 -3 47 -3 0 -45 0 -45 -47 -3 -48 -3
0 50 0 51 -50 0 -50 0 0 -50 0 -50 -50 0 -50 0 0 -50 0 -51 148 3 c122 3 147
6 148 18 1 8 2 30 3 48 l1 32 95 0 95 0 0 49 0 50 -47 3 -48 3 0 45 0 45 47 3
47 3 3 47 3 47 98 3 97 3 0 144 0 145 -51 0 -51 0 4 50 3 50 -53 0 -53 0 3 48
3 47 47 3 47 3 3 -48 3 -48 48 -3 47 -3 0 50 0 50 -47 3 -48 3 -3 98 -3 97 50
0 50 0 3 48 3 47 48 3 47 3 0 50 0 49 -50 0 -50 0 0 43 c0 24 3 47 7 50 3 4
26 7 50 7 l43 0 0 -50z m398 -497 l-3 -48 -47 -3 -48 -3 0 50 0 51 51 0 50 0
-3 -47z m100 -200 l-3 -48 -95 0 -95 0 -3 48 -3 47 101 0 101 0 -3 -47z
m-1390 -295 l3 -148 -51 0 -50 0 0 51 0 50 -47 -3 -48 -3 -3 -47 -3 -48 -50 0
-50 0 3 48 3 47 48 3 47 3 0 50 0 49 50 0 50 0 0 44 c0 48 6 53 60 52 l35 -1
3 -147z m2970 100 l3 -48 -50 0 -51 0 0 43 c0 24 3 47 6 50 4 4 25 6 48 4 l41
-2 3 -47z m-3068 -1489 l0 -250 -47 3 -48 3 -3 47 -3 47 -97 3 -97 3 -3 48 -3
47 50 0 51 0 0 49 0 50 -47 3 -48 3 0 45 0 45 98 3 97 3 0 43 c0 23 3 46 7 49
3 4 26 7 50 7 l43 0 0 -251z m1980 101 l0 -50 -100 0 -100 0 0 43 c0 24 3 47
7 50 3 4 48 7 100 7 l93 0 0 -50z m300 0 l0 -50 -50 0 -50 0 0 50 0 50 50 0
50 0 0 -50z m992 -297 l3 -48 48 -3 47 -3 0 -50 0 -49 -100 0 -100 0 0 100 0
100 49 0 50 0 3 -47z m-1686 -100 l-1 -48 -97 -3 -98 -3 0 51 0 50 99 0 98 0
-1 -47z m-296 -97 l0 -44 -50 -4 -50 -3 0 48 0 47 50 0 50 0 0 -44z m-400
-295 l0 -50 -47 -3 -48 -3 -3 -47 -3 -48 50 0 51 0 0 -50 0 -50 50 0 50 0 0
-50 0 -50 -50 0 -50 0 0 51 0 50 -47 -3 -48 -3 -3 -47 -3 -48 -50 0 -49 0 0
49 0 50 -47 3 -48 3 0 45 0 45 47 3 47 3 3 47 3 47 48 3 47 3 0 43 c0 23 3 46
7 49 3 4 26 7 50 7 l43 0 0 -49z m1880 -102 l0 -150 -47 3 -48 3 -3 47 -3 47
-47 3 -47 3 0 45 0 45 48 3 47 3 0 50 0 49 50 0 50 0 0 -151z m400 -99 l0
-150 -150 0 -150 0 0 150 0 150 150 0 150 0 0 -150z m298 98 l3 -48 -50 0 -51
0 0 51 0 50 48 -3 47 -3 3 -47z m-1788 -98 l0 -50 -95 0 -95 0 0 50 0 50 95 0
95 0 0 -50z m-1084 -100 l0 -50 -47 0 c-52 0 -58 7 -51 68 4 31 6 32 51 32
l46 0 1 -50z m1482 -197 l-3 -148 -97 -3 -98 -3 0 51 0 50 50 0 50 0 0 100 0
100 50 0 51 0 -3 -147z m200 0 l-3 -48 -47 -3 -48 -3 0 50 0 51 51 0 50 0 -3
-47z m792 -4 l0 -50 -47 3 -48 3 -3 48 -3 47 50 0 51 0 0 -51z m-1682 -96 l-3
-48 -47 -3 -48 -3 0 50 0 51 51 0 50 0 -3 -47z"/>
<path d="M1620 3710 l0 -100 50 0 50 0 0 100 0 100 -50 0 -50 0 0 -100z"/>
<path d="M1420 3660 l0 -50 50 0 50 0 0 50 0 50 -50 0 -50 0 0 -50z"/>
<path d="M1520 3410 l0 -100 50 0 50 0 0 100 0 100 -50 0 -50 0 0 -100z"/>
<path d="M1220 2870 l0 -50 50 0 50 0 0 50 0 50 -50 0 -50 0 0 -50z"/>
<path d="M1620 2770 l0 -50 50 0 50 0 0 -100 0 -100 100 0 100 0 0 -51 0 -50
48 3 47 3 3 48 3 48 47 -3 47 -3 3 -97 3 -98 44 0 45 0 0 150 0 150 -94 0 -95
0 -3 48 -3 47 -47 3 -48 3 0 -50 0 -51 -50 0 -50 0 0 50 0 50 -50 0 -50 0 0
50 0 50 -50 0 -50 0 0 -50z m398 -202 l3 -48 -50 0 -51 0 0 51 0 50 48 -3 47
-3 3 -47z"/>
<path d="M1327 2713 c-4 -3 -7 -26 -7 -49 l0 -43 -47 -3 -48 -3 0 -95 0 -95
48 -3 47 -3 0 50 0 51 50 0 50 0 0 100 0 100 -43 0 c-24 0 -47 -3 -50 -7z"/>
<path d="M2410 2670 l0 -50 50 0 50 0 0 50 0 50 -50 0 -50 0 0 -50z"/>
<path d="M1030 2571 l0 -51 45 0 c42 0 45 2 47 28 3 71 6 67 -45 70 l-47 3 0
-50z"/>
<path d="M2810 2570 l0 -50 50 0 50 0 0 50 0 50 -50 0 -50 0 0 -50z"/>
<path d="M730 2470 l0 -50 100 0 100 0 0 50 0 50 -100 0 -100 0 0 -50z"/>
<path d="M1720 2369 l0 -50 48 3 47 3 3 48 3 47 -50 0 -51 0 0 -51z"/>
<path d="M2908 2373 l-3 -48 -47 -3 -48 -3 0 -49 0 -49 147 -3 148 -3 -3 -42
c-3 -38 -1 -43 22 -49 14 -3 37 -3 51 0 22 6 25 12 25 51 l0 45 -50 0 -50 0 0
50 0 50 -45 0 -45 0 0 50 0 50 -49 0 -50 0 -3 -47z"/>
<path d="M3700 2370 l0 -50 50 0 50 0 0 50 0 50 -50 0 -50 0 0 -50z"/>
<path d="M732 2273 l3 -48 98 -3 97 -3 0 51 0 50 -101 0 -100 0 3 -47z"/>
<path d="M3604 2121 c-2 -2 -4 -24 -4 -48 l0 -43 50 0 50 0 0 44 0 44 -46 4
c-25 2 -47 1 -50 -1z"/>
<path d="M1220 1980 l0 -50 50 0 50 0 0 50 0 50 -50 0 -50 0 0 -50z"/>
<path d="M3500 690 l0 -50 50 0 50 0 0 50 0 50 -50 0 -50 0 0 -50z"/>
<path d="M2517 4104 c-4 -4 -7 -49 -7 -101 l0 -93 50 0 50 0 0 50 0 50 51 0
50 0 -3 48 -3 47 -90 3 c-50 2 -94 0 -98 -4z"/>
<path d="M2810 4059 l0 -48 48 -3 47 -3 3 -48 3 -48 97 3 96 3 -3 48 -3 47
101 0 101 0 0 50 0 51 -97 -3 -98 -3 -3 -47 -3 -48 -94 0 -94 0 -3 47 -3 47
-47 2 -48 2 0 -49z"/>
<path d="M3506 4102 c-3 -3 -6 -160 -6 -349 l0 -343 345 0 345 0 0 350 0 350
-339 -1 c-187 -1 -342 -4 -345 -7z m589 -342 l0 -245 -247 -3 -248 -2 0 243
c0 134 3 247 7 251 4 3 115 5 247 4 l241 -3 0 -245z"/>
<path d="M3700 3760 l0 -151 148 3 147 3 0 145 0 145 -147 3 -148 3 0 -151z"/>
<path d="M3313 4003 c-8 -3 -13 -23 -13 -48 l0 -44 -97 -3 -98 -3 -3 -47 -4
-48 101 0 101 0 2 -197 3 -198 48 -3 47 -3 0 200 0 201 -50 0 -50 0 0 50 0 50
50 0 50 0 0 50 0 50 -37 -1 c-21 0 -44 -3 -50 -6z"/>
<path d="M930 3411 l0 -101 50 0 50 0 0 -51 0 -50 46 3 47 3 1 98 1 97 -47 0
c-39 0 -48 3 -49 18 -4 84 0 77 -51 80 l-48 3 0 -100z"/>
<path d="M4098 3215 c-3 -104 -3 -104 60 -97 l32 4 0 94 0 94 -44 0 -45 0 -3
-95z"/>
<path d="M4000 2969 l0 -50 47 3 c44 3 46 5 49 33 4 56 -3 65 -52 65 l-44 0 0
-51z"/>
<path d="M137 2713 c-2 -5 -3 -26 -3 -48 l1 -40 48 -3 47 -3 0 50 0 51 -44 0
c-25 0 -47 -3 -49 -7z"/>
<path d="M3010 1090 l0 -50 45 0 45 0 0 50 0 50 -45 0 -45 0 0 -50z"/>
<path d="M337 933 c-4 -3 -7 -26 -7 -50 l0 -43 100 0 100 0 0 50 0 50 -93 0
c-52 0 -97 -3 -100 -7z"/>
<path d="M630 890 l0 -50 101 0 100 0 -3 48 -3 47 -97 3 -98 3 0 -51z"/>
<path d="M136 732 c-2 -4 -5 -160 -5 -345 l-1 -337 350 0 350 0 0 345 0 345
-344 0 c-190 0 -347 -4 -350 -8z m592 -339 l-3 -248 -245 0 -245 0 -3 235 c-1
129 0 240 2 247 4 10 62 13 251 13 l245 0 -2 -247z"/>
<path d="M334 527 c-2 -7 -3 -74 -2 -148 l3 -134 145 0 145 0 3 148 3 147
-146 0 c-110 0 -147 -3 -151 -13z"/>
<path d="M3998 443 l-3 -98 -47 -3 -48 -3 0 -145 0 -144 50 0 50 0 0 94 0 95
48 3 47 3 0 45 0 45 48 3 47 3 0 50 0 49 -45 0 c-29 0 -45 4 -46 13 0 6 -1 28
-2 47 -2 34 -3 35 -49 38 l-47 3 -3 -98z"/>
<path d="M4098 200 c-2 -23 -1 -44 2 -49 3 -4 23 -7 45 -7 l40 1 3 48 3 47
-44 0 -45 0 -4 -40z"/>
<path d="M2815 141 c-3 -2 -5 -24 -5 -47 0 -47 8 -52 68 -46 32 4 33 5 30 50
l-3 46 -43 1 c-23 1 -45 -1 -47 -4z"/>
<path d="M3033 142 c-20 -3 -23 -9 -23 -48 l0 -44 45 0 45 0 0 48 c0 50 -4 53
-67 44z"/>
</g>
</svg>
